<?xml version="1.0" encoding="UTF-8"?>
<svg id="Layer_1" data-name="Layer 1" xmlns="http://www.w3.org/2000/svg" viewBox="0 0 16 16">
  <defs>
    <style>
      .cls-1 {
        fill: #f5d700;
      }

      .cls-1, .cls-2 {
        stroke-width: 0px;
      }

      .cls-2 {
        fill: #7ad8f0;
      }
    </style>
  </defs>
  <path class="cls-2" d="M8,4.75c-1.79,0-3.25,1.45-3.25,3.25s1.45,3.25,3.25,3.25,3.25-1.45,3.25-3.25-1.45-3.25-3.25-3.25M5.75,8c0-1.24,1.01-2.25,2.25-2.25s2.25,1.01,2.25,2.25-1.01,2.25-2.25,2.25-2.25-1.01-2.25-2.25"/>
  <path class="cls-1" d="M9.8,1.34c-.53-1.79-3.07-1.79-3.59,0l-.09.32c-.14.46-.62.73-1.08.59-.06-.02-.12-.04-.17-.07l-.29-.16c-1.64-.89-3.43.9-2.54,2.54l.16.29c.23.42.07.95-.35,1.18-.05.03-.11.05-.17.07l-.32.09c-1.79.53-1.79,3.06,0,3.59l.32.09c.46.14.73.62.59,1.08-.02.06-.04.12-.07.17l-.16.29c-.89,1.64.9,3.43,2.54,2.54l.29-.16c.42-.23.95-.07,1.18.35.03.05.05.11.07.17l.09.32c.53,1.79,3.06,1.79,3.59,0l.09-.32c.14-.46.62-.73,1.08-.59.06.02.12.04.17.07l.29.16c1.64.89,3.43-.9,2.54-2.54l-.16-.29c-.23-.42-.07-.95.35-1.18.05-.03.11-.05.17-.07l.32-.09c1.79-.53,1.79-3.07,0-3.59l-.32-.09c-.46-.14-.73-.62-.59-1.08.02-.06.04-.12.07-.17l.16-.29c.89-1.64-.9-3.43-2.54-2.54l-.29.16c-.42.23-.95.07-1.18-.35-.03-.05-.05-.11-.07-.17l-.09-.32ZM7.16,1.63c.25-.83,1.43-.83,1.67,0l.09.32c.29.99,1.33,1.56,2.33,1.27.13-.04.25-.09.37-.15l.29-.16c.76-.41,1.6.42,1.18,1.19l-.16.29c-.49.91-.16,2.05.75,2.54.12.06.24.11.37.15l.32.09c.84.25.84,1.43,0,1.67l-.32.09c-.99.29-1.56,1.33-1.27,2.33.04.13.09.25.15.37l.16.29c.41.76-.42,1.6-1.19,1.18l-.29-.16c-.91-.49-2.05-.16-2.54.75-.06.12-.11.24-.15.37l-.09.32c-.25.84-1.43.84-1.67,0l-.09-.32c-.29-.99-1.33-1.56-2.33-1.27-.13.04-.25.09-.37.15l-.29.16c-.76.41-1.6-.42-1.18-1.19l.16-.29c.5-.91.16-2.05-.75-2.54-.12-.06-.24-.11-.37-.15l-.32-.09c-.83-.25-.83-1.43,0-1.67l.32-.09c.99-.29,1.56-1.33,1.27-2.33-.04-.13-.09-.25-.15-.36l-.16-.29c-.41-.76.42-1.6,1.19-1.18l.29.16c.91.49,2.05.16,2.54-.75.06-.12.11-.24.15-.37l.09-.32Z"/>
</svg>